<?xml version="1.0" encoding="UTF-8"?>
<svg id="Layer_1" data-name="Layer 1" xmlns="http://www.w3.org/2000/svg" viewBox="0 0 213.81 80.11">
  <defs>
    <style>
      .cls-1 {
        fill: #3c8bd9;
      }

      .cls-2 {
        fill: #e1c025;
      }

      .cls-3 {
        fill: #757575;
      }

      .cls-4 {
        fill: #34a852;
      }

      .cls-5 {
        fill: #fabc04;
      }
    </style>
  </defs>
  <g>
    <path class="cls-1" d="M29.84,10.09c.85-2.22,2.01-4.27,3.74-5.93,6.92-6.74,18.36-5.05,23.06,3.43,3.53,6.43,7.27,12.71,10.91,19.07l18.22,31.71c5.05,8.86-.42,20.06-10.45,21.57-6.14.92-11.9-1.91-15.08-7.42l-16.03-27.82c-.11-.21-.25-.39-.39-.56-.56-.46-.81-1.13-1.17-1.73l-11.79-20.44c-1.38-2.4-2.01-5.01-1.94-7.77.11-1.41.28-2.82.92-4.1"/>
    <path class="cls-5" d="M29.84,10.09c-.32,1.27-.6,2.54-.67,3.88-.11,2.97.64,5.72,2.12,8.3l11.62,20.09c.35.6.64,1.2.99,1.77l-6.39,10.98-8.93,15.4c-.14,0-.18-.07-.21-.18-.04-.28.07-.53.14-.81,1.45-5.3.25-9.99-3.39-14.02-2.22-2.44-5.05-3.81-8.3-4.27-4.24-.6-7.98.49-11.33,3.14-.6.46-.99,1.13-1.69,1.48-.14,0-.21-.07-.25-.18l5.05-8.79L29.59,10.48c.07-.14.18-.25.25-.39"/>
    <path class="cls-4" d="M3.67,55.78l2.01-1.8c8.58-6.78,21.47-1.87,23.34,8.86.46,2.58.21,5.05-.56,7.52-.04.21-.07.39-.14.6-.32.56-.6,1.17-.95,1.73-3.14,5.19-7.77,7.77-13.84,7.38-6.96-.49-12.43-5.72-13.38-12.64-.46-3.35.21-6.5,1.94-9.39.35-.64.78-1.2,1.17-1.84.18-.14.11-.42.42-.42"/>
    <path class="cls-5" d="M3.67,55.78c-.14.14-.14.39-.39.42-.04-.25.11-.39.25-.56l.14.14"/>
    <path class="cls-2" d="M28.32,70.96c-.14-.25,0-.42.14-.6l.14.14-.28.46"/>
  </g>
  <path class="cls-3" d="M101.73,7.17c-9.07,0-16.61,7.3-16.61,16.29s7.54,16.21,16.61,16.21c4.89,0,8.5-1.6,11.39-4.57,2.97-2.97,3.85-7.06,3.85-10.35,0-1.04-.08-2.01-.24-2.81h-15v4.41h10.67c-.32,2.49-1.12,4.33-2.41,5.62-1.52,1.52-4.01,3.29-8.26,3.29-6.58,0-11.71-5.3-11.71-11.79s5.13-11.79,11.71-11.79c3.53,0,6.18,1.36,8.02,3.21l3.13-3.13c-2.65-2.57-6.18-4.57-11.15-4.57ZM128.93,18.8c-5.7,0-10.43,4.41-10.43,10.59s4.65,10.59,10.43,10.59,10.43-4.49,10.43-10.59-4.73-10.59-10.43-10.59M128.93,35.81c-3.13,0-5.86-2.65-5.86-6.42s2.73-6.42,5.86-6.42,5.86,2.57,5.86,6.42-2.73,6.42-5.86,6.42M151.56,18.8c-5.78,0-10.43,4.41-10.43,10.59s4.65,10.59,10.43,10.59,10.43-4.49,10.43-10.59-4.65-10.59-10.43-10.59M151.56,35.81c-3.13,0-5.86-2.65-5.86-6.42s2.73-6.42,5.86-6.42,5.86,2.57,5.86,6.42-2.65,6.42-5.86,6.42M174.1,18.8c-5.21,0-9.95,4.57-9.95,10.51s4.73,10.43,9.95,10.43c2.49,0,4.41-1.12,5.46-2.41h.16v1.52c0,4.01-2.09,6.18-5.54,6.18-2.81,0-4.49-2.01-5.21-3.69l-4.01,1.68c1.12,2.81,4.17,6.18,9.23,6.18,5.38,0,9.87-3.21,9.87-10.91v-18.77h-4.33v1.68h-.16c-1.04-1.28-2.97-2.41-5.46-2.41M174.5,35.65c-3.13,0-5.78-2.65-5.78-6.34s2.65-6.42,5.78-6.42,5.54,2.73,5.54,6.42-2.41,6.34-5.54,6.34M187.42,8.45h4.57v30.97h-4.57V8.45h0ZM204.27,18.8c-5.46,0-10.03,4.25-10.03,10.59,0,5.94,4.49,10.59,10.51,10.59,4.89,0,7.7-2.97,8.83-4.65l-3.61-2.41c-1.2,1.77-2.89,2.89-5.21,2.89s-4.09-1.04-5.13-3.21l14.2-5.86-.48-1.2c-.88-2.33-3.61-6.74-9.07-6.74M198.81,29.07c-.16-4.09,3.21-6.18,5.54-6.18,1.85,0,3.45.88,3.93,2.25l-9.47,3.93h0Z"/>
  <path class="cls-3" d="M115.3,76.62l10.59-28.16h4.09l10.59,28.16h-4.01l-2.73-7.62h-11.79l-2.73,7.62h-4.01ZM123.24,65.63h9.39l-4.57-12.68h-.16s-4.65,12.68-4.65,12.68ZM144.26,74.3c-1.77-2.01-2.65-4.41-2.65-7.3s.88-5.21,2.65-7.3c1.85-2.01,3.93-2.97,6.5-2.97,1.44,0,2.73.32,3.85.88,1.2.64,2.09,1.36,2.73,2.41h.16l-.16-2.65v-8.91h3.61v28.16h-3.45v-2.65h-.16c-.64.96-1.52,1.77-2.73,2.41s-2.49.88-3.85.88c-2.57,0-4.73-.96-6.5-2.97M155.66,72.05c1.2-1.28,1.77-2.97,1.77-5.05s-.56-3.69-1.77-4.97c-1.12-1.28-2.57-1.93-4.33-1.93s-3.21.64-4.33,1.93c-1.2,1.28-1.77,2.97-1.77,4.97s.56,3.69,1.77,4.97,2.65,1.93,4.33,1.93c1.77.08,3.21-.56,4.33-1.85M177.64,75.5c-1.44,1.12-3.29,1.77-5.54,1.77-1.93,0-3.61-.48-5.13-1.52-1.44-1.04-2.49-2.33-3.13-4.01l3.21-1.36c.48,1.12,1.12,2.09,2.09,2.73.88.64,1.93.96,2.97.96,1.12,0,2.09-.24,2.89-.72s1.12-1.12,1.12-1.77c0-1.2-.96-2.17-2.81-2.73l-3.29-.8c-3.77-.96-5.62-2.73-5.62-5.46,0-1.77.72-3.13,2.17-4.25,1.44-1.04,3.29-1.6,5.46-1.6,1.63-.01,3.23.4,4.65,1.2,1.36.8,2.33,1.93,2.89,3.29l-3.21,1.36c-.4-.8-.96-1.44-1.77-1.93s-1.77-.72-2.81-.72c-.96,0-1.77.24-2.57.72-.72.48-1.12,1.04-1.12,1.77,0,1.12,1.04,1.93,3.13,2.33l2.89.72c3.85.96,5.7,2.89,5.7,5.78.08,1.68-.72,3.13-2.17,4.25"/>
</svg>