<svg width="239" height="96" viewBox="0 0 239 96" fill="none" xmlns="http://www.w3.org/2000/svg">
<g clip-path="url(#clip0_1_6)">
<path d="M76.9412 27.0258C73.6427 28.4622 70.0159 32.5154 68.8706 37.6062C67.4203 44.055 73.4563 46.7817 73.9516 45.8889C74.5345 44.8379 72.8701 44.4826 72.527 41.1366C72.084 36.8153 74.0174 31.9859 76.4498 29.8671C76.9019 29.4737 76.8806 30.0213 76.8806 31.0348C76.8806 32.8472 76.7845 49.1156 76.7845 52.5112C76.7845 57.1053 76.602 58.5565 76.2738 59.9896C75.9417 61.4421 75.4077 62.424 75.812 62.8021C76.2641 63.225 78.1948 62.2189 79.3124 60.5975C80.6524 58.653 81.1219 56.3178 81.2057 53.7814C81.3076 50.7243 81.3031 45.8734 81.3076 43.1059C81.3115 40.5682 81.3489 33.1368 81.2651 28.6693C81.2444 27.5734 78.3212 26.4239 76.9412 27.0245V27.0258ZM229.091 51.1613C228.613 51.1613 228.395 51.6741 228.214 52.5374C227.587 55.5382 226.929 56.2159 226.08 56.2159C225.13 56.2159 224.278 54.7299 224.059 51.7558C223.886 49.4172 223.914 45.1113 224.134 40.8282C224.179 39.9482 223.946 39.0775 221.675 38.2202C220.698 37.8509 219.277 37.3086 218.57 39.0828C216.572 44.0959 215.789 48.0767 215.606 49.6927C215.596 49.7765 215.498 49.7932 215.48 49.5982C215.363 48.3032 215.101 45.9499 215.068 41.0059C215.061 40.0413 214.865 39.2202 213.841 38.5479C213.176 38.1116 211.157 37.3401 210.431 38.2584C209.801 39.0091 209.072 41.0293 208.314 43.4236C207.698 45.3694 207.269 46.6858 207.269 46.6858C207.269 46.6858 207.277 41.4348 207.285 39.4428C207.288 38.6914 206.792 38.4407 206.643 38.3958C205.97 38.1927 204.643 37.8535 204.081 37.8535C203.387 37.8535 203.216 38.257 203.216 38.8449C203.216 38.922 203.107 45.7588 203.107 50.5393C203.107 50.7471 203.107 50.9736 203.108 51.2142C202.724 53.4114 201.478 56.3942 200.124 56.3942C198.769 56.3942 198.128 55.1475 198.128 49.4481C198.128 46.1235 198.224 44.6777 198.271 42.2734C198.299 40.8886 198.351 39.8242 198.348 39.5835C198.338 38.8435 197.107 38.4702 196.534 38.3321C195.958 38.1934 195.458 38.1391 195.067 38.1625C194.514 38.1947 194.123 38.5721 194.123 39.0902C194.123 39.3684 194.126 39.8965 194.126 39.8965C193.414 38.7336 192.268 37.9239 191.507 37.6893C189.454 37.0559 187.312 37.6176 185.697 39.9669C184.413 41.8337 183.639 43.9484 183.334 46.9868C183.112 49.2074 183.184 51.4602 183.58 53.3645C183.101 55.5134 182.213 56.3942 181.242 56.3942C179.83 56.3942 178.807 53.9999 178.926 49.8583C179.005 47.1342 179.529 45.2226 180.102 42.457C180.347 41.278 180.148 40.6607 179.65 40.0695C179.194 39.5266 178.22 39.2497 176.82 39.5909C175.823 39.8335 174.398 40.0956 173.095 40.296C173.095 40.296 173.174 39.9696 173.238 39.3945C173.577 36.3782 170.423 36.6229 169.417 37.5861C168.817 38.1612 168.408 38.8395 168.253 40.0594C168.006 41.9952 169.525 42.9081 169.525 42.9081C169.026 45.2796 167.805 48.3769 166.544 50.6164C165.869 51.8162 165.352 52.7049 164.685 53.6507C164.683 53.2995 164.681 52.9483 164.68 52.5964C164.665 47.6115 164.728 43.6877 164.757 42.274C164.785 40.8892 164.838 39.8537 164.835 39.6124C164.828 39.0708 164.523 38.8663 163.891 38.6076C163.332 38.3784 162.67 38.2202 161.984 38.1652C161.118 38.0955 160.596 38.5721 160.61 39.1371C160.613 39.2437 160.613 39.8979 160.613 39.8979C159.901 38.735 158.755 37.9253 157.993 37.6907C155.941 37.0572 153.799 37.6189 152.184 39.9683C150.9 41.835 150.059 44.4551 149.821 46.9647C149.599 49.3039 149.64 51.2913 149.942 52.9657C149.616 54.6421 148.678 56.3955 147.616 56.3955C146.26 56.3955 145.488 55.1488 145.488 49.4494C145.488 46.1248 145.584 44.679 145.631 42.2747C145.659 40.8899 145.712 39.8255 145.709 39.5849C145.698 38.8449 144.467 38.4715 143.894 38.3335C143.294 38.1893 142.777 38.1364 142.379 38.1666C141.854 38.2074 141.486 38.6947 141.486 39.0587V39.8979C140.774 38.735 139.628 37.9253 138.866 37.6907C136.814 37.0572 134.684 37.6276 133.057 39.9683C131.995 41.4945 131.136 43.1863 130.694 46.9311C130.566 48.0137 130.51 49.0271 130.517 49.9742C130.094 52.6641 128.225 55.7648 126.696 55.7648C125.801 55.7648 124.949 53.9611 124.949 50.117C124.949 44.996 125.254 37.7061 125.305 37.0029C125.305 37.0029 127.237 36.9688 127.611 36.9641C128.576 36.9533 129.448 36.9768 130.731 36.9084C131.375 36.8743 131.995 34.4733 131.331 34.1757C131.03 34.041 128.902 33.923 128.058 33.9049C127.349 33.8882 125.374 33.736 125.374 33.736C125.374 33.736 125.551 28.8966 125.592 28.3858C125.627 27.9595 125.097 27.7403 124.793 27.6069C124.053 27.2819 123.391 27.1264 122.607 26.9581C121.524 26.7255 121.032 26.9528 120.936 27.9039C120.792 29.3463 120.717 33.5718 120.717 33.5718C119.922 33.5718 117.206 33.4102 116.411 33.4102C115.672 33.4102 114.874 36.7134 115.896 36.7543C117.072 36.8019 119.12 36.8428 120.478 36.885C120.478 36.885 120.417 44.2956 120.417 46.5839C120.417 46.8273 120.418 47.0619 120.42 47.2891C119.672 51.3382 117.039 53.5254 117.039 53.5254C117.605 50.8469 116.45 48.8347 114.37 47.1322C113.603 46.5049 112.09 45.3171 110.397 44.0148C110.397 44.0148 111.377 43.0107 112.247 40.9898C112.863 39.5587 112.89 37.9206 111.377 37.5593C108.879 36.9621 106.819 38.869 106.204 40.9053C105.728 42.4832 105.982 43.6535 106.915 44.8694C106.983 44.9585 107.057 45.049 107.133 45.1402C106.569 46.2703 105.794 47.7911 105.138 48.9708C103.316 52.2465 101.94 54.8371 100.9 54.8371C100.069 54.8371 100.081 52.2069 100.081 49.7443C100.081 47.6215 100.231 44.4297 100.352 41.1245C100.392 40.0313 99.8658 39.4093 98.9843 38.8449C98.449 38.5024 97.3056 37.8287 96.644 37.8287C95.6535 37.8287 92.7948 37.9688 90.094 46.0893C89.7535 47.1128 89.0848 48.9775 89.0848 48.9775L89.1422 39.2122C89.1422 38.983 89.0248 38.7618 88.7559 38.6103C88.3006 38.3536 87.0851 37.8281 86.0042 37.8281C85.4896 37.8281 85.2323 38.0767 85.2323 38.5734L85.1382 53.8518C85.1382 55.0127 85.1672 56.3667 85.2781 56.9592C85.3877 57.5524 85.5664 58.0344 85.7869 58.3219C86.0075 58.6081 86.2622 58.8266 86.6827 58.9171C87.0741 59.0009 89.2164 59.2871 89.3279 58.4359C89.4614 57.4157 89.4666 56.3131 90.5912 52.1989C92.3427 45.7937 94.6262 42.6688 95.6999 41.5588C95.8876 41.3651 96.1017 41.3531 96.0914 41.6708C96.0456 43.075 95.8843 46.5839 95.776 49.5647C95.4852 57.5424 96.8813 59.021 98.8766 59.021C100.403 59.021 102.555 57.4445 104.862 53.4537C106.3 50.9669 107.696 48.5284 108.699 46.7703C109.398 47.4432 110.182 48.1671 110.967 48.9407C112.788 50.7377 113.387 52.4456 112.99 54.0663C112.686 55.305 111.543 56.5812 109.508 55.3405C108.915 54.9785 108.661 54.699 108.065 54.2908C107.745 54.0717 107.256 54.006 106.963 54.2359C106.2 54.8331 105.765 55.5925 105.516 56.5323C105.274 57.4472 106.156 57.9305 107.069 58.3534C107.856 58.7174 109.547 59.0471 110.625 59.0847C114.826 59.2308 118.192 56.976 120.535 51.16C120.955 56.183 122.739 59.025 125.841 59.025C127.915 59.025 129.994 56.2393 130.903 53.4986C131.164 54.6159 131.55 55.5872 132.049 56.4083C134.439 60.3435 139.075 59.4969 141.403 56.1549C142.123 55.122 142.233 54.7506 142.233 54.7506C142.572 57.9063 145.017 59.0089 146.417 59.0089C147.985 59.0089 149.604 58.2388 150.739 55.5838C150.869 55.8673 151.015 56.1421 151.175 56.4083C153.565 60.3435 158.201 59.4969 160.53 56.1549C160.639 55.998 160.735 55.8559 160.818 55.7279L160.886 57.8011L158.743 59.8448C155.149 63.2679 152.418 65.8652 152.218 68.8889C151.962 72.7443 154.97 74.1774 157.247 74.3651C159.662 74.5641 161.734 73.1767 163.006 71.2342C164.125 69.525 164.857 65.8451 164.804 62.2109C164.783 60.7557 164.747 58.905 164.719 56.9217C165.981 55.3988 167.403 53.4744 168.71 51.2216C170.137 48.7664 171.665 45.4699 172.448 42.9041C172.448 42.9041 173.775 42.9162 175.193 42.8196C175.646 42.7888 175.776 42.8847 175.693 43.2305C175.591 43.6474 173.902 50.4206 175.444 54.9316C176.499 58.0203 178.878 59.0136 180.289 59.0136C181.939 59.0136 183.519 57.718 184.365 55.7929C184.467 56.0074 184.574 56.2152 184.69 56.4069C187.08 60.3421 191.7 59.4909 194.045 56.1535C194.574 55.4008 194.874 54.7493 194.874 54.7493C195.377 58.0149 197.821 59.0244 199.221 59.0244C200.621 59.0244 202.062 58.403 203.185 55.6421C203.232 56.858 203.305 57.8514 203.422 58.1651C203.493 58.3568 203.908 58.5974 204.209 58.7133C205.542 59.2268 206.902 58.9841 207.406 58.8789C207.755 58.8058 208.026 58.5149 208.064 57.7642C208.161 55.7929 208.101 52.4817 208.676 50.0205C209.641 45.8902 210.541 44.2876 210.968 43.4946C211.208 43.0502 211.477 42.9772 211.487 43.447C211.507 44.3988 211.552 47.1932 211.927 50.9481C212.201 53.7097 212.568 55.3418 212.849 55.8586C213.654 57.3359 214.647 57.4056 215.456 57.4056C215.971 57.4056 217.047 57.2582 216.951 56.3178C216.904 55.8593 216.986 53.0274 217.938 48.9587C218.559 46.3011 219.595 43.9008 219.968 43.0227C220.106 42.699 220.17 42.9544 220.168 43.004C220.089 44.8338 219.913 50.8194 220.63 54.0938C221.602 58.529 224.415 59.025 225.395 59.025C227.487 59.025 229.198 57.3708 229.775 53.0173C229.915 51.9683 229.71 51.16 229.093 51.16L229.091 51.1613ZM141.441 48.4701C141.321 50.7739 140.889 52.6996 140.195 54.0985C138.939 56.6301 136.455 57.4331 135.36 53.7747C134.57 51.1372 134.839 47.5398 135.168 45.5966C135.656 42.7131 136.876 40.6687 138.782 40.8624C140.74 41.0615 141.691 43.6763 141.441 48.4701ZM160.567 48.5036C160.455 50.6794 159.912 52.8645 159.32 54.0991C158.098 56.6482 155.544 57.4452 154.486 53.7754C153.762 51.2679 153.935 48.0224 154.294 45.978C154.759 43.3244 155.885 40.8631 157.908 40.8631C159.874 40.8631 160.844 43.1059 160.567 48.5036ZM161.066 63.3457C161.04 67.3144 160.439 70.7938 159.15 71.8046C157.323 73.2377 154.866 72.1625 155.375 69.2669C155.825 66.7044 157.953 64.087 161.071 60.8897C161.071 60.8897 161.078 61.619 161.066 63.3463V63.3457ZM194.082 48.5271C193.976 50.9153 193.467 52.7827 192.836 54.0991C191.614 56.6482 189.078 57.4398 188.001 53.7754C187.414 51.778 187.387 48.4413 187.809 45.6543C188.239 42.815 189.437 40.6701 191.423 40.8638C193.381 41.0548 194.298 43.6776 194.082 48.5278V48.5271Z" fill="white"/>
</g>
<path d="M25.015 44.9806C25.015 40.5468 28.6081 36.9501 33.0438 36.9501C37.4795 36.9501 41.0744 40.545 41.0744 44.9806C41.0744 49.4163 37.4795 53.0112 33.0438 53.0112C28.6081 53.0112 25.015 49.4163 25.015 44.9806ZM20.6736 44.9806C20.6736 51.8117 26.2109 57.3491 33.042 57.3491C39.8731 57.3491 45.4104 51.8117 45.4104 44.9806C45.4104 38.1496 39.8731 32.6122 33.042 32.6122C26.2109 32.6122 20.6736 38.1496 20.6736 44.9806ZM43.0114 32.1212C43.0114 33.7175 44.3051 35.0131 45.9032 35.0131C47.5014 35.0131 48.7951 33.7175 48.7951 32.1212C48.7951 30.5249 47.5014 29.2311 45.9032 29.2311C44.3051 29.2311 43.0114 30.5249 43.0114 32.1212ZM23.31 64.5878C20.9617 64.4809 19.6843 64.0895 18.8363 63.7597C17.711 63.3213 16.9102 62.8012 16.0658 61.9587C15.2232 61.1161 14.6996 60.3152 14.2647 59.19C13.9331 58.342 13.5435 57.0646 13.4366 54.7163C13.3207 52.1777 13.2971 51.4149 13.2971 44.9825C13.2971 38.55 13.3225 37.789 13.4366 35.2486C13.5435 32.9003 13.9367 31.6265 14.2647 30.7749C14.7032 29.6497 15.2232 28.8488 16.0658 28.0044C16.9083 27.1619 17.7092 26.6382 18.8363 26.2034C19.6843 25.8718 20.9617 25.4822 23.31 25.3753C25.8485 25.2593 26.6114 25.2358 33.042 25.2358C39.4726 25.2358 40.2354 25.2611 42.7758 25.3753C45.1241 25.4822 46.3979 25.8754 47.2495 26.2034C48.3748 26.64 49.1756 27.1619 50.02 28.0044C50.8626 28.847 51.3844 29.6497 51.8211 30.7749C52.1527 31.6229 52.5422 32.9003 52.6492 35.2486C52.7651 37.789 52.7887 38.55 52.7887 44.9825C52.7887 51.4149 52.7651 52.1759 52.6492 54.7163C52.5422 57.0646 52.1491 58.342 51.8211 59.19C51.3826 60.3152 50.8626 61.1161 50.02 61.9587C49.1774 62.8012 48.3748 63.3231 47.2495 63.7597C46.4015 64.0913 45.1241 64.4809 42.7758 64.5878C40.2373 64.7038 39.4744 64.7273 33.042 64.7273C26.6095 64.7273 25.8485 64.7038 23.31 64.5878ZM23.1107 21.0393C20.5467 21.1553 18.7946 21.5629 17.2635 22.1573C15.6798 22.7715 14.3372 23.5978 12.9963 24.935C11.6573 26.274 10.8329 27.6167 10.2186 29.2021C9.62247 30.7351 9.21659 32.4854 9.10063 35.0493C8.98104 37.6169 8.95386 38.4395 8.95386 44.9806C8.95386 51.5218 8.98104 52.3426 9.10063 54.912C9.21659 57.4759 9.62428 59.2281 10.2186 60.7592C10.8329 62.3428 11.6573 63.6873 12.9963 65.0263C14.3354 66.3653 15.678 67.188 17.2635 67.804C18.7964 68.4002 20.5467 68.806 23.1107 68.922C25.6818 69.038 26.5008 69.0688 33.042 69.0688C39.5831 69.0688 40.404 69.0416 42.9733 68.922C45.5372 68.806 47.2894 68.3983 48.8205 67.804C50.4041 67.188 51.7468 66.3635 53.0876 65.0263C54.4267 63.6873 55.2493 62.3428 55.8654 60.7592C56.4615 59.2281 56.8692 57.4759 56.9833 54.912C57.0993 52.3408 57.1265 51.5218 57.1265 44.9806C57.1265 38.4395 57.0993 37.6187 56.9833 35.0493C56.8674 32.4854 56.4597 30.7332 55.8654 29.2021C55.2493 27.6185 54.4249 26.2758 53.0876 24.935C51.7486 23.596 50.4041 22.7715 48.8223 22.1573C47.2894 21.5611 45.5372 21.1534 42.9751 21.0393C40.4076 20.9233 39.585 20.8925 33.0438 20.8925C26.5026 20.8925 25.6818 20.9197 23.1107 21.0393Z" fill="white"/>
<defs>
<clipPath id="clip0_1_6">
<rect width="161.169" height="47.5243" fill="white" transform="translate(68.6462 26.8615)"/>
</clipPath>
</defs>
</svg>
