<?xml version="1.0" encoding="UTF-8"?>
<svg id="Layer_1" xmlns="http://www.w3.org/2000/svg" xmlns:xlink="http://www.w3.org/1999/xlink" version="1.1" viewBox="0 0 241 110">
  <!-- Generator: Adobe Illustrator 29.1.0, SVG Export Plug-In . SVG Version: 2.1.0 Build 142)  -->
  <defs>
    <style>
      .st0 {
        fill: url(#linear-gradient1);
      }

      .st1 {
        fill: url(#linear-gradient);
      }

      .st2 {
        fill: #fff;
      }

      .st3 {
        fill: #0081fb;
      }
    </style>
    <linearGradient id="linear-gradient" x1="296.2" y1="-192.8" x2="344.2" y2="-195.3" gradientTransform="translate(-275.5 -141) scale(1 -1)" gradientUnits="userSpaceOnUse">
      <stop offset="0" stop-color="#0064e1"/>
      <stop offset=".4" stop-color="#0064e1"/>
      <stop offset=".8" stop-color="#0073ee"/>
      <stop offset="1" stop-color="#0082fb"/>
    </linearGradient>
    <linearGradient id="linear-gradient1" x1="291.1" y1="-204.6" x2="291.1" y2="-186.9" gradientTransform="translate(-275.5 -141) scale(1 -1)" gradientUnits="userSpaceOnUse">
      <stop offset="0" stop-color="#0082fb"/>
      <stop offset="1" stop-color="#0064e0"/>
    </linearGradient>
  </defs>
  <path id="Logo0" class="st3" d="M13.1,60.4c0,2.7.6,4.7,1.3,5.9,1,1.6,2.5,2.3,4,2.3s3.8-.5,7.2-5.3c2.8-3.8,6-9.2,8.2-12.6l3.7-5.7c2.6-4,5.6-8.4,9-11.4,2.8-2.4,5.8-3.8,8.9-3.8,5.1,0,10,3,13.7,8.5,4.1,6.1,6.1,13.7,6.1,21.6s-.9,8.2-2.5,10.9c-1.5,2.6-4.5,5.3-9.5,5.3v-7.5c4.3,0,5.3-3.9,5.3-8.4,0-6.4-1.5-13.5-4.8-18.6-2.3-3.6-5.4-5.8-8.7-5.8s-6.5,2.7-9.8,7.6c-1.7,2.6-3.5,5.7-5.5,9.2l-2.2,3.9c-4.4,7.8-5.5,9.6-7.7,12.5-3.9,5.2-7.2,7.1-11.5,7.1s-8.4-2.2-10.4-5.6c-1.6-2.7-2.5-6.3-2.5-10.4l7.5.3Z"/>
  <path id="Logo1" class="st1" d="M11.5,38.9c3.5-5.3,8.4-9,14.2-9s6.6,1,10,3.8c3.8,3.1,7.8,8.1,12.8,16.4l1.8,3c4.3,7.2,6.8,10.9,8.2,12.7,1.9,2.2,3.1,2.9,4.8,2.9,4.3,0,5.3-3.9,5.3-8.4l6.6-.2c0,4.7-.9,8.2-2.5,10.9-1.5,2.6-4.5,5.3-9.5,5.3s-5.9-.7-8.9-3.5c-2.3-2.2-5.1-6.1-7.2-9.6l-6.3-10.4c-3.1-5.2-6-9.2-7.7-10.9-1.8-1.9-4.1-4.2-7.8-4.2s-5.5,2.1-7.6,5.3l-6.4-3.8Z"/>
  <path id="Logo2" class="st0" d="M25.5,37.5c-3,0-5.5,2.1-7.6,5.3-3,4.5-4.8,11.2-4.8,17.7s.6,4.7,1.3,5.9l-6.4,4.2c-1.6-2.7-2.5-6.3-2.5-10.4,0-7.5,2-15.2,5.9-21.2,3.5-5.3,8.4-9,14.2-9v7.6Z"/>
  <path id="Text" class="st2" d="M89.9,31.3h8.7l14.8,26.8,14.8-26.8h8.5v44h-7.1v-33.7l-13,23.4h-6.7l-13-23.4v33.7h-7.1V31.3ZM159.1,47.8c-5.1,0-8.2,3.8-8.9,8.6h17.3c-.4-4.9-3.2-8.6-8.4-8.6h0ZM143.1,59.1c0-10,6.5-17.3,16.1-17.3s15.1,7.2,15.1,17.8v2h-24.1c.9,5.2,4.3,8.6,9.8,8.6s7.2-1.3,9.8-3.8l3.8,4.6c-3.6,3.3-8.1,5.2-13.8,5.2-10.4,0-16.6-7.6-16.6-17.1ZM182.9,48.4h-6.5v-5.8h6.5v-9.6h6.9v9.6h9.9v5.8h-9.9v14.7c0,5,1.6,6.8,5.6,6.8s2.8-.2,4.4-.4v5.8c-1.9.5-3.7.8-5.7.8-7.4,0-11.1-4-11.1-12.1v-15.6ZM228.6,54.1c-1.4-3.5-4.4-6-9-6s-9.6,4.2-9.6,10.9,3.5,11,9.3,11,7.9-2.7,9.2-6v-9.8ZM235.4,75.4h-6.7v-4.6c-1.9,2.7-5.3,5.4-10.9,5.4-8.9,0-14.9-7.5-14.9-17.2s6.1-17.2,15.3-17.2,8.1,1.8,10.5,5v-4.2h6.7v32.8Z"/>
</svg>