<svg width="241" height="110" viewBox="0 0 241 110" fill="none" xmlns="http://www.w3.org/2000/svg">
<path d="M50.8805 38.6257C55.1039 41.6528 60.2807 43.4368 65.8673 43.4368V32.6475C64.8115 32.6475 63.7556 32.5357 62.7176 32.3166V40.8077C57.1265 40.8077 51.9542 39.0236 47.7308 35.9965V58.0134C47.7308 69.0263 38.8295 77.9555 27.8523 77.9555C23.7536 77.9555 19.949 76.7125 16.7859 74.5841C20.3945 78.2864 25.4287 80.5846 31.002 80.5846C41.9837 80.5846 50.8849 71.6554 50.8849 60.6425V38.6257H50.8805ZM54.7653 27.7425C52.6046 25.3771 51.1879 22.3187 50.8805 18.9384V17.5523H47.8956C48.6485 21.8493 51.2057 25.5202 54.7608 27.7425H54.7653ZM23.7269 66.1333C22.5196 64.546 21.8691 62.6054 21.8736 60.6112C21.8736 55.572 25.9455 51.4897 30.9664 51.4897C31.9019 51.4897 32.833 51.6328 33.724 51.9189V40.8882C32.6816 40.7451 31.6302 40.6825 30.5788 40.7049V49.2898C29.6877 49.0036 28.7566 48.8606 27.8166 48.8606C22.7958 48.8606 18.7238 52.9429 18.7238 57.9821C18.7238 61.5457 20.7598 64.6265 23.7269 66.1333Z" fill="#FF004F"/>
<path d="M47.7306 36.001C51.954 39.0281 57.1308 40.8122 62.7174 40.8122V32.3211C59.5989 31.6549 56.8367 30.0184 54.7607 27.7425C51.2055 25.5157 48.6439 21.8448 47.8954 17.5523H40.059V60.647C40.0412 65.6728 35.9781 69.7372 30.9662 69.7372C28.0125 69.7372 25.3885 68.3243 23.7267 66.1378C20.7597 64.6354 18.7237 61.5502 18.7237 57.991C18.7237 52.9518 22.7956 48.8695 27.8165 48.8695C28.7788 48.8695 29.7054 49.0215 30.5786 49.2987V40.7138C19.7929 40.9374 11.1189 49.7772 11.1189 60.6514C11.1189 66.0796 13.2796 70.9981 16.7857 74.5931C19.9488 76.7214 23.7579 77.9644 27.8521 77.9644C38.8338 77.9644 47.7306 69.0352 47.7306 58.0223V36.0055V36.001Z" fill="white"/>
<path d="M62.7175 32.3165V30.0182C59.9064 30.0182 57.1442 29.2313 54.7608 27.7379C56.8725 30.0585 59.6569 31.6592 62.7175 32.3165ZM47.8955 17.5477C47.8242 17.1363 47.7708 16.725 47.7307 16.3091V14.923H36.9138V58.0177C36.896 63.039 32.8329 67.1079 27.821 67.1079C26.3508 67.1079 24.9608 66.7592 23.7313 66.1332C25.393 68.3196 28.017 69.7326 30.9707 69.7326C35.9827 69.7326 40.0457 65.6637 40.0635 60.6424V17.5477H47.9H47.8955ZM30.5787 40.7047V38.2589C29.6743 38.1337 28.7655 38.0711 27.8522 38.0711C16.8705 38.0711 7.96924 47.0004 7.96924 58.0132C7.96924 64.917 11.4665 71.0024 16.7814 74.584C13.2752 70.989 11.1145 66.0661 11.1145 60.6424C11.1145 49.7681 19.7885 40.9283 30.5742 40.7047H30.5787Z" fill="#00F2EA"/>
<path d="M188.074 68.9322C195.928 68.9322 202.299 62.5918 202.299 54.7715C202.299 46.9511 195.928 40.6108 188.074 40.6108H185.931C193.786 40.6108 200.156 46.9511 200.156 54.7715C200.156 62.5918 193.786 68.9322 185.931 68.9322H188.074Z" fill="#FF004F"/>
<path d="M185.735 40.6064H183.592C175.738 40.6064 169.367 46.9467 169.367 54.7671C169.367 62.5874 175.738 68.9278 183.592 68.9278H185.735C177.876 68.9278 171.51 62.5874 171.51 54.7671C171.51 46.9467 177.881 40.6064 185.735 40.6064Z" fill="#00F2EA"/>
<path d="M77.5885 34.2081V41.3846H85.964V68.7357H94.344V41.5768H101.165L103.504 34.2036H77.5885V34.2081ZM146.179 34.2081V41.3846H154.554V68.7357H162.934V41.5768H169.755L172.094 34.2036H146.179V34.2081ZM105.063 38.2815C105.063 36.0324 106.894 34.2081 109.153 34.2081C111.411 34.2081 113.247 36.0324 113.247 38.2815C113.247 40.5305 111.416 42.3548 109.153 42.3548C106.894 42.3548 105.063 40.5305 105.063 38.2815ZM105.063 45.2657H113.242V68.7402H105.063V45.2657ZM116.753 34.2081V68.7402H124.937V59.8154L127.472 57.4858L135.46 68.9324H144.227L132.729 52.2499L143.056 42.1626H133.116L124.932 50.3093V34.2081H116.749H116.753ZM205.026 34.2081V68.7402H213.21V59.8154L215.74 57.4858L223.732 68.9324H232.5L221.001 52.2499L231.328 42.1626H221.389L213.205 50.3093V34.2081H205.021H205.026Z" fill="white"/>
<path d="M185.931 68.9322C193.786 68.9322 200.156 62.5918 200.156 54.7715C200.156 46.9511 193.786 40.6108 185.931 40.6108H185.735C177.881 40.6108 171.51 46.9511 171.51 54.7715C171.51 62.5918 177.881 68.9322 185.735 68.9322H185.931ZM178.915 54.7715C178.915 50.9664 182.015 47.8856 185.833 47.8856C189.651 47.8856 192.752 50.9664 192.752 54.7715C192.752 58.5766 189.656 61.6573 185.833 61.6573C182.011 61.6573 178.915 58.5721 178.915 54.7715Z" fill="white"/>
</svg>
